<?xml version="1.0" encoding="utf-8"?>
<!-- Generator: Adobe Illustrator 21.0.2, SVG Export Plug-In . SVG Version: 6.00 Build 0)  -->
<svg version="1.1" xmlns="http://www.w3.org/2000/svg" xmlns:xlink="http://www.w3.org/1999/xlink" x="0px" y="0px"
	 viewBox="0 0 155 146.9" style="enable-background:new 0 0 155 146.9;" xml:space="preserve">
<style type="text/css">
	.st0{fill:url(#_x31__x2F_14_1_);}
	.st1{fill:url(#_x31__x2F_13_1_);}
	.st2{fill:#414042;}
	.st3{fill:url(#_x31__x2F_11_1_);}
	.st4{fill:url(#_x31__x2F_10_1_);}
	.st5{fill:url(#_x31__x2F_9_1_);}
	.st6{fill:url(#_x31__x2F_8_1_);}
	.st7{fill:url(#_x31__x2F_7_1_);}
	.st8{fill:url(#_x31__x2F_6_1_);}
	.st9{fill:url(#_x31__x2F_5_1_);}
	.st10{fill:url(#_x31__x2F_4_1_);}
	.st11{fill:url(#_x31__x2F_3_1_);}
	.st12{fill:url(#SVGID_1_);}
	.st13{fill:url(#SVGID_2_);}
	.st14{fill:url(#SVGID_3_);}
	.st15{fill:url(#SVGID_4_);}
	.st16{fill:url(#SVGID_5_);}
	.st17{fill:url(#SVGID_6_);}
	.st18{fill:none;stroke:#333333;stroke-width:0.5;}
	.st19{fill:url(#SVGID_7_);}
	.st20{fill:url(#SVGID_8_);}
	.st21{fill:url(#SVGID_9_);}
	.st22{fill:url(#SVGID_10_);}
	.st23{fill:url(#SVGID_11_);}
	.st24{fill:url(#SVGID_12_);}
	.st25{fill:none;stroke:#FFD41F;}
	.st26{fill:url(#SVGID_13_);}
	.st27{fill:url(#SVGID_14_);}
	.st28{fill:url(#SVGID_15_);}
	.st29{fill:url(#SVGID_16_);}
	.st30{fill:url(#SVGID_17_);}
	.st31{fill:url(#SVGID_18_);}
	.st32{fill:url(#SVGID_19_);}
</style>
<g id="Layer_1">
	<g id="_x31_">
		<linearGradient id="_x31__x2F_14_1_" gradientUnits="userSpaceOnUse" x1="7.8964" y1="136.6284" x2="31.5733" y2="112.9515">
			<stop  offset="0" style="stop-color:#D48B24"/>
			<stop  offset="8.069035e-03" style="stop-color:#D8962C"/>
			<stop  offset="2.841040e-02" style="stop-color:#DFAC3C"/>
			<stop  offset="5.243482e-02" style="stop-color:#E5BD49"/>
			<stop  offset="8.215977e-02" style="stop-color:#E9C852"/>
			<stop  offset="0.1239" style="stop-color:#EBCF57"/>
			<stop  offset="0.2397" style="stop-color:#ECD158"/>
			<stop  offset="1" style="stop-color:#C1860E"/>
		</linearGradient>
		<path id="_x31__x2F_14" class="st0" d="M16.9,140l-4.2-14L0,119.9c11.3-9.5,23.7-16.6,37-21.2l8.6,24.9
			C35.4,127.1,25.7,132.6,16.9,140z"/>
		<linearGradient id="_x31__x2F_13_1_" gradientUnits="userSpaceOnUse" x1="109.1593" y1="138.2746" x2="155.8684" y2="91.5655">
			<stop  offset="0" style="stop-color:#C1860E"/>
			<stop  offset="0.6044" style="stop-color:#F6E269"/>
			<stop  offset="0.7874" style="stop-color:#F5E068"/>
			<stop  offset="0.8533" style="stop-color:#F3D962"/>
			<stop  offset="0.9003" style="stop-color:#EECE59"/>
			<stop  offset="0.9382" style="stop-color:#E7BD4B"/>
			<stop  offset="0.9704" style="stop-color:#DFA73A"/>
			<stop  offset="0.9987" style="stop-color:#D58C25"/>
			<stop  offset="1" style="stop-color:#D48B24"/>
		</linearGradient>
		<path id="_x31__x2F_13" class="st1" d="M138.1,140l4.2-14l12.7-6.2c-11.3-9.5-23.7-16.6-37-21.2l-8.6,24.9
			C119.7,127.1,129.3,132.6,138.1,140z"/>
		<path id="_x31__x2F_12" class="st2" d="M151.9,121.4c-10.7-8.7-22.4-15.3-34.9-19.7l0.4-1.1c12.8,4.5,24.8,11.3,35.7,20.2
			L151.9,121.4z M117.3,125.2c7.5,3.3,14.7,7.7,21.3,13.1l0.4-1.2c-6.6-5.4-13.7-9.7-21.2-13c-1.8-0.8-5.3-2.1-7.5-2.9l-0.4,1.1
			C112.1,123.2,115.5,124.5,117.3,125.2z M3.2,121.4c10.7-8.7,22.4-15.3,34.9-19.7l-0.4-1.1c-12.8,4.5-24.8,11.3-35.7,20.2
			L3.2,121.4z M45.2,122.4l-0.4-1.1c-2.2,0.8-5.7,2.1-7.5,2.9c-7.5,3.2-14.6,7.6-21.2,13l0.4,1.2c6.6-5.4,13.8-9.9,21.3-13.1
			C39.5,124.5,43,123.2,45.2,122.4z"/>
		<linearGradient id="_x31__x2F_11_1_" gradientUnits="userSpaceOnUse" x1="29.7832" y1="121.1939" x2="130.476" y2="20.5011">
			<stop  offset="0" style="stop-color:#C1860E"/>
			<stop  offset="0.3069" style="stop-color:#F6E269"/>
			<stop  offset="0.4735" style="stop-color:#F5E067"/>
			<stop  offset="0.5336" style="stop-color:#F1D960"/>
			<stop  offset="0.5762" style="stop-color:#EACE55"/>
			<stop  offset="0.6052" style="stop-color:#E2C047"/>
			<stop  offset="0.6675" style="stop-color:#E6C651"/>
			<stop  offset="0.7731" style="stop-color:#F2D66C"/>
			<stop  offset="0.839" style="stop-color:#FAE280"/>
			<stop  offset="0.8633" style="stop-color:#F0CB67"/>
			<stop  offset="0.8986" style="stop-color:#E4AF4A"/>
			<stop  offset="0.9335" style="stop-color:#DB9B35"/>
			<stop  offset="0.9676" style="stop-color:#D68F28"/>
			<stop  offset="1" style="stop-color:#D48B24"/>
		</linearGradient>
		<polygon id="_x31__x2F_11" class="st3" points="77.5,7.6 90.5,0 100,11.6 114.8,8.9 119.8,23 134.7,25.5 134.5,40.5 147.6,47.9 
			142.3,62 152.1,73.5 142.3,84.9 147.6,99 134.5,106.4 134.7,121.4 119.8,123.9 114.8,138 100,135.3 90.5,146.9 77.5,139.3 
			64.6,146.9 55,135.3 40.2,138 35.2,123.9 20.4,121.4 20.5,106.4 7.4,99 12.7,84.9 2.9,73.5 12.7,62 7.4,47.9 20.5,40.5 20.4,25.5 
			35.2,23 40.2,8.9 55,11.6 64.6,0 		"/>
		<linearGradient id="_x31__x2F_10_1_" gradientUnits="userSpaceOnUse" x1="37.1428" y1="-8.3661" x2="168.9137" y2="123.4047">
			<stop  offset="0.2401" style="stop-color:#FFED9F"/>
			<stop  offset="0.6309" style="stop-color:#FAE67E"/>
			<stop  offset="0.9388" style="stop-color:#F6E269"/>
		</linearGradient>
		<polygon id="_x31__x2F_10" class="st4" points="142.3,84.9 152.1,73.5 142.3,62 147.6,47.9 134.5,40.5 134.7,25.5 119.8,23 
			114.8,8.9 100,11.6 90.5,0 77.5,7.6 64.6,0 55,11.6 40.2,8.9 35.2,23 20.4,25.5 20.5,38.6 116.1,134.3 119.8,123.9 134.7,121.4 
			134.5,106.4 147.6,99 		"/>
		<linearGradient id="_x31__x2F_9_1_" gradientUnits="userSpaceOnUse" x1="29.8182" y1="121.159" x2="128.4206" y2="22.5566">
			<stop  offset="0" style="stop-color:#231F20"/>
			<stop  offset="4.726690e-02" style="stop-color:#2C292A"/>
			<stop  offset="0.2028" style="stop-color:#444345"/>
			<stop  offset="0.3407" style="stop-color:#535355"/>
			<stop  offset="0.4459" style="stop-color:#58595B"/>
			<stop  offset="0.6559" style="stop-color:#4D4D4F"/>
			<stop  offset="0.83" style="stop-color:#414042"/>
		</linearGradient>
		<polygon id="_x31__x2F_9" class="st5" points="77.5,12.7 89.5,5.7 98.3,16.4 111.9,13.8 116.6,26.9 130.2,29.2 130.1,43.1 
			142.2,49.9 137.3,62.9 146.4,73.5 137.3,84 142.2,97 130.1,103.8 130.2,117.7 116.6,120 111.9,133.1 98.3,130.5 89.5,141.2 
			77.5,134.2 65.6,141.2 56.8,130.5 43.1,133.1 38.5,120 24.8,117.7 24.9,103.8 12.8,97 17.7,84 8.7,73.5 17.7,62.9 12.8,49.9 
			24.9,43.1 24.8,29.2 38.5,26.9 43.1,13.8 56.8,16.4 65.6,5.7 		"/>
		<linearGradient id="_x31__x2F_8_1_" gradientUnits="userSpaceOnUse" x1="29.6115" y1="121.3656" x2="125.0558" y2="25.9213">
			<stop  offset="0" style="stop-color:#C1860E"/>
			<stop  offset="0.3069" style="stop-color:#F6E269"/>
			<stop  offset="0.4735" style="stop-color:#F5E067"/>
			<stop  offset="0.5336" style="stop-color:#F1D960"/>
			<stop  offset="0.5762" style="stop-color:#EACE55"/>
			<stop  offset="0.6052" style="stop-color:#E2C047"/>
			<stop  offset="0.6675" style="stop-color:#E6C651"/>
			<stop  offset="0.7731" style="stop-color:#F2D66C"/>
			<stop  offset="0.839" style="stop-color:#FAE280"/>
			<stop  offset="0.8633" style="stop-color:#F0CB67"/>
			<stop  offset="0.8986" style="stop-color:#E4AF4A"/>
			<stop  offset="0.9335" style="stop-color:#DB9B35"/>
			<stop  offset="0.9676" style="stop-color:#D68F28"/>
			<stop  offset="1" style="stop-color:#D48B24"/>
		</linearGradient>
		<path id="_x31__x2F_8" class="st6" d="M77.5,17.3c-31,0-56.2,25.1-56.2,56.2c0,31,25.1,56.2,56.2,56.2c31,0,56.2-25.1,56.2-56.2
			C133.7,42.4,108.5,17.3,77.5,17.3z M77.5,127C48,127,24,103,24,73.5c0-29.6,24-53.5,53.5-53.5c29.6,0,53.5,24,53.5,53.5
			C131,103,107.1,127,77.5,127z"/>
		<linearGradient id="_x31__x2F_7_1_" gradientUnits="userSpaceOnUse" x1="45.6955" y1="12.9368" x2="145.2724" y2="112.5137">
			<stop  offset="0.2401" style="stop-color:#FCE790"/>
			<stop  offset="0.5299" style="stop-color:#F9E57E"/>
			<stop  offset="0.9388" style="stop-color:#F6E269"/>
		</linearGradient>
		<path id="_x31__x2F_7" class="st7" d="M133.7,73.5c0-31-25.1-56.2-56.2-56.2c-21.2,0-39.6,11.7-49.2,29l1.9,1.9
			c9-16.9,26.8-28.3,47.2-28.3c29.6,0,53.5,24,53.5,53.5c0,20.4-11.5,38.2-28.3,47.2l1.9,1.9C122,113.1,133.7,94.6,133.7,73.5z"/>
		<linearGradient id="_x31__x2F_6_1_" gradientUnits="userSpaceOnUse" x1="22.3255" y1="128.6516" x2="131.3826" y2="19.5945">
			<stop  offset="0" style="stop-color:#C1860E"/>
			<stop  offset="0.3069" style="stop-color:#F6E269"/>
			<stop  offset="0.4057" style="stop-color:#F3DD64"/>
			<stop  offset="0.5302" style="stop-color:#EACD54"/>
			<stop  offset="0.6052" style="stop-color:#E2C047"/>
			<stop  offset="0.7393" style="stop-color:#E1BD45"/>
			<stop  offset="0.8334" style="stop-color:#DFB43F"/>
			<stop  offset="0.9151" style="stop-color:#DBA535"/>
			<stop  offset="0.9895" style="stop-color:#D58F26"/>
			<stop  offset="1" style="stop-color:#D48B24"/>
		</linearGradient>
		<circle id="_x31__x2F_6" class="st8" cx="77.5" cy="73.5" r="52.2"/>
		<linearGradient id="_x31__x2F_5_1_" gradientUnits="userSpaceOnUse" x1="47.5529" y1="17.672" x2="140.021" y2="110.1402">
			<stop  offset="0.2401" style="stop-color:#FFED9F"/>
			<stop  offset="0.6309" style="stop-color:#FAE67E"/>
			<stop  offset="0.9388" style="stop-color:#F6E269"/>
		</linearGradient>
		<path id="_x31__x2F_5" class="st9" d="M77.5,21.3c-20.1,0-37.5,11.4-46.2,28l70.3,70.3c16.7-8.7,28-26.1,28-46.2
			C129.7,44.7,106.3,21.3,77.5,21.3z"/>
		<linearGradient id="_x31__x2F_4_1_" gradientUnits="userSpaceOnUse" x1="31.4403" y1="150.2827" x2="143.0822" y2="38.6409">
			<stop  offset="0" style="stop-color:#C1860E"/>
			<stop  offset="0.2305" style="stop-color:#FFEB8A"/>
			<stop  offset="0.4781" style="stop-color:#FEE988"/>
			<stop  offset="0.5673" style="stop-color:#FBE381"/>
			<stop  offset="0.5772" style="stop-color:#FAE280"/>
			<stop  offset="1" style="stop-color:#D48B24"/>
		</linearGradient>
		<path id="_x31__x2F_4" class="st10" d="M135.4,122.7c-16.7-14.1-36.2-21.2-57.9-21.2c-21.7,0-41.2,7.1-57.9,21.2L2.7,102.6
			c21.6-18.2,46.8-27.4,74.8-27.4c28,0,53.2,9.2,74.8,27.4L135.4,122.7z"/>
		<linearGradient id="_x31__x2F_3_1_" gradientUnits="userSpaceOnUse" x1="72.7457" y1="55.2222" x2="148.2277" y2="130.7042">
			<stop  offset="0.4703" style="stop-color:#FFED9F"/>
			<stop  offset="0.5445" style="stop-color:#FAE492"/>
			<stop  offset="0.6806" style="stop-color:#EBCC71"/>
			<stop  offset="0.8621" style="stop-color:#D4A63B"/>
			<stop  offset="1" style="stop-color:#C1860E"/>
		</linearGradient>
		<path id="_x31__x2F_3" class="st11" d="M61.5,76.2L87.3,102c17.8,1.8,33.9,8.8,48.1,20.7l16.9-20.1
			c-21.6-18.2-46.8-27.4-74.8-27.4C72.1,75.2,66.8,75.6,61.5,76.2z"/>
		<path id="_x31__x2F_2" class="st2" d="M151.1,104.1l-0.7,0.9c-21.1-17.5-45.6-26.5-72.8-26.5S25.8,87.5,4.7,105L4,104.1
			C25.3,86.4,50,77.4,77.5,77.4C105,77.4,129.8,86.4,151.1,104.1z M17.8,120.6l0.7,0.9C35.6,107,55.5,99.7,77.5,99.7
			s41.9,7.3,58.9,21.8l0.7-0.9C119.9,106,99.9,98.5,77.5,98.5C55.2,98.5,35.1,106,17.8,120.6z"/>
		<path id="_x31__x2F_1" class="st2" d="M80.6,116.1l1.4,5l-4.3-2.9l-4.3,2.9l1.4-5l-4.1-3.2l5.2-0.2l1.8-4.9l1.8,4.9l5.2,0.2
			L80.6,116.1z M66,111.9l-3.1-1.4l0.1-3.4l-2.3,2.5l-3.2-1.2l1.7,3l-2.1,2.7l3.4-0.7l1.9,2.9l0.4-3.4L66,111.9z M92.8,112.9
			l0.4,3.4l1.9-2.9l3.4,0.7l-2.1-2.7l1.7-3l-3.2,1.2l-2.3-2.5l0.1,3.4l-3.1,1.4L92.8,112.9z M80.3,28.7l-2.8-4l-2.8,4l-3.6-1.4
			l1.3,4.2h5.1h5.1l1.3-4.2L80.3,28.7z"/>
	</g>
	<g>
		<g>
			<linearGradient id="SVGID_1_" gradientUnits="userSpaceOnUse" x1="39.1398" y1="56.5219" x2="49.4591" y2="56.5219">
				<stop  offset="0" style="stop-color:#231F20"/>
				<stop  offset="4.726690e-02" style="stop-color:#2C292A"/>
				<stop  offset="0.2028" style="stop-color:#444345"/>
				<stop  offset="0.3407" style="stop-color:#535355"/>
				<stop  offset="0.4459" style="stop-color:#58595B"/>
				<stop  offset="0.6559" style="stop-color:#4D4D4F"/>
				<stop  offset="0.83" style="stop-color:#414042"/>
			</linearGradient>
			<path class="st12" d="M47.6,65.6c-0.8-1.7-1.7-3.4-2.5-5.1c-1.4-2.8-3-6.2-4.1-8.5v13.2c0,0.6-0.4,1-1,1c-0.6,0-1-0.4-1-1V47.8
				c0-0.5,0.3-0.8,0.8-0.9c0.4-0.1,0.9,0.1,1.1,0.5c0.8,1.7,1.6,3.4,2.4,5.1c1.4,2.8,3,6.2,4.1,8.5V47.8c0-0.6,0.4-1,1-1
				c0.6,0,1,0.4,1,1v17.4c0,0.4-0.3,0.8-0.8,0.9C48.3,66.3,47.8,66,47.6,65.6z"/>
			<linearGradient id="SVGID_2_" gradientUnits="userSpaceOnUse" x1="52.3598" y1="56.5231" x2="62.6988" y2="56.5231">
				<stop  offset="0" style="stop-color:#231F20"/>
				<stop  offset="4.726690e-02" style="stop-color:#2C292A"/>
				<stop  offset="0.2028" style="stop-color:#444345"/>
				<stop  offset="0.3407" style="stop-color:#535355"/>
				<stop  offset="0.4459" style="stop-color:#58595B"/>
				<stop  offset="0.6559" style="stop-color:#4D4D4F"/>
				<stop  offset="0.83" style="stop-color:#414042"/>
			</linearGradient>
			<path class="st13" d="M52.5,48.2c-0.2-0.4,0-1,0.5-1.3c0.4-0.2,1,0,1.3,0.5l3.3,6.7l3.3-6.7c0.2-0.5,0.8-0.7,1.3-0.5
				c0.5,0.2,0.7,0.8,0.5,1.3l-4.1,8.2v8.8c0,0.6-0.4,1-1,1s-1-0.4-1-1v-8.8L52.5,48.2z"/>
			<linearGradient id="SVGID_3_" gradientUnits="userSpaceOnUse" x1="64.3991" y1="56.5815" x2="74.1188" y2="56.5815">
				<stop  offset="0" style="stop-color:#231F20"/>
				<stop  offset="4.726690e-02" style="stop-color:#2C292A"/>
				<stop  offset="0.2028" style="stop-color:#444345"/>
				<stop  offset="0.3407" style="stop-color:#535355"/>
				<stop  offset="0.4459" style="stop-color:#58595B"/>
				<stop  offset="0.6559" style="stop-color:#4D4D4F"/>
				<stop  offset="0.83" style="stop-color:#414042"/>
			</linearGradient>
			<path class="st14" d="M74.1,47.9c0,0.6-0.4,1-1,1h-2.9v16.3c0,0.6-0.4,1-1,1c-0.5,0-1-0.4-1-1V48.9h-2.9c-0.5,0-1-0.4-1-1
				c0-0.6,0.5-1,1-1h7.8C73.7,47,74.1,47.4,74.1,47.9z"/>
			<linearGradient id="SVGID_4_" gradientUnits="userSpaceOnUse" x1="82.7589" y1="56.5214" x2="84.6789" y2="56.5214">
				<stop  offset="0" style="stop-color:#231F20"/>
				<stop  offset="4.726690e-02" style="stop-color:#2C292A"/>
				<stop  offset="0.2028" style="stop-color:#444345"/>
				<stop  offset="0.3407" style="stop-color:#535355"/>
				<stop  offset="0.4459" style="stop-color:#58595B"/>
				<stop  offset="0.6559" style="stop-color:#4D4D4F"/>
				<stop  offset="0.83" style="stop-color:#414042"/>
			</linearGradient>
			<path class="st15" d="M82.8,65.2V47.8c0-0.6,0.4-1,1-1c0.6,0,1,0.4,1,1v17.4c0,0.6-0.4,1-1,1C83.2,66.2,82.8,65.8,82.8,65.2z"/>
			<linearGradient id="SVGID_5_" gradientUnits="userSpaceOnUse" x1="94.5182" y1="56.5214" x2="103.6378" y2="56.5214">
				<stop  offset="0" style="stop-color:#231F20"/>
				<stop  offset="4.726690e-02" style="stop-color:#2C292A"/>
				<stop  offset="0.2028" style="stop-color:#444345"/>
				<stop  offset="0.3407" style="stop-color:#535355"/>
				<stop  offset="0.4459" style="stop-color:#58595B"/>
				<stop  offset="0.6559" style="stop-color:#4D4D4F"/>
				<stop  offset="0.83" style="stop-color:#414042"/>
			</linearGradient>
			<path class="st16" d="M103.6,51.5v10c0,2.5-2,4.6-4.6,4.6h-3.6c-0.6,0-1-0.4-1-1V47.9c0-0.6,0.4-1,1-1h3.6
				C101.6,47,103.6,49,103.6,51.5z M99.1,48.9h-2.6v15.2h2.6c1.5,0,2.6-1.2,2.6-2.6v-10C101.7,50.1,100.5,48.9,99.1,48.9z"/>
			<linearGradient id="SVGID_6_" gradientUnits="userSpaceOnUse" x1="107.3581" y1="56.5171" x2="117.0958" y2="56.5171">
				<stop  offset="0" style="stop-color:#231F20"/>
				<stop  offset="4.726690e-02" style="stop-color:#2C292A"/>
				<stop  offset="0.2028" style="stop-color:#444345"/>
				<stop  offset="0.3407" style="stop-color:#535355"/>
				<stop  offset="0.4459" style="stop-color:#58595B"/>
				<stop  offset="0.6559" style="stop-color:#4D4D4F"/>
				<stop  offset="0.83" style="stop-color:#414042"/>
			</linearGradient>
			<path class="st17" d="M116.5,66.1c-0.5,0.2-1.1,0-1.3-0.4l-4.3-8.9l-1.7,2.3v6.1c0,0.6-0.4,1-1,1c-0.5,0-1-0.4-1-1V47.8
				c0-0.6,0.4-1,1-1c0.6,0,1,0.4,1,1v7.9l6.1-8.5c0.3-0.5,0.9-0.5,1.4-0.2c0.4,0.3,0.5,0.9,0.2,1.3l-4.6,6.5l4.7,9.9
				C117.2,65.3,117,65.9,116.5,66.1z"/>
		</g>
		<g>
			<path class="st18" d="M47.6,65.6c-0.8-1.7-1.7-3.4-2.5-5.1c-1.4-2.8-3-6.2-4.1-8.5v13.2c0,0.6-0.4,1-1,1c-0.6,0-1-0.4-1-1V47.8
				c0-0.5,0.3-0.8,0.8-0.9c0.4-0.1,0.9,0.1,1.1,0.5c0.8,1.7,1.6,3.4,2.4,5.1c1.4,2.8,3,6.2,4.1,8.5V47.8c0-0.6,0.4-1,1-1
				c0.6,0,1,0.4,1,1v17.4c0,0.4-0.3,0.8-0.8,0.9C48.3,66.3,47.8,66,47.6,65.6z"/>
			<path class="st18" d="M52.5,48.2c-0.2-0.4,0-1,0.5-1.3c0.4-0.2,1,0,1.3,0.5l3.3,6.7l3.3-6.7c0.2-0.5,0.8-0.7,1.3-0.5
				c0.5,0.2,0.7,0.8,0.5,1.3l-4.1,8.2v8.8c0,0.6-0.4,1-1,1s-1-0.4-1-1v-8.8L52.5,48.2z"/>
			<path class="st18" d="M74.1,47.9c0,0.6-0.4,1-1,1h-2.9v16.3c0,0.6-0.4,1-1,1c-0.5,0-1-0.4-1-1V48.9h-2.9c-0.5,0-1-0.4-1-1
				c0-0.6,0.5-1,1-1h7.8C73.7,47,74.1,47.4,74.1,47.9z"/>
			<path class="st18" d="M82.8,65.2V47.8c0-0.6,0.4-1,1-1c0.6,0,1,0.4,1,1v17.4c0,0.6-0.4,1-1,1C83.2,66.2,82.8,65.8,82.8,65.2z"/>
			<path class="st18" d="M103.6,51.5v10c0,2.5-2,4.6-4.6,4.6h-3.6c-0.6,0-1-0.4-1-1V47.9c0-0.6,0.4-1,1-1h3.6
				C101.6,47,103.6,49,103.6,51.5z M99.1,48.9h-2.6v15.2h2.6c1.5,0,2.6-1.2,2.6-2.6v-10C101.7,50.1,100.5,48.9,99.1,48.9z"/>
			<path class="st18" d="M116.5,66.1c-0.5,0.2-1.1,0-1.3-0.4l-4.3-8.9l-1.7,2.3v6.1c0,0.6-0.4,1-1,1c-0.5,0-1-0.4-1-1V47.8
				c0-0.6,0.4-1,1-1c0.6,0,1,0.4,1,1v7.9l6.1-8.5c0.3-0.5,0.9-0.5,1.4-0.2c0.4,0.3,0.5,0.9,0.2,1.3l-4.6,6.5l4.7,9.9
				C117.2,65.3,117,65.9,116.5,66.1z"/>
		</g>
		<g>
			<linearGradient id="SVGID_7_" gradientUnits="userSpaceOnUse" x1="39.1398" y1="56.5171" x2="117.0958" y2="56.5171">
				<stop  offset="0" style="stop-color:#231F20"/>
				<stop  offset="4.726690e-02" style="stop-color:#2C292A"/>
				<stop  offset="0.2028" style="stop-color:#444345"/>
				<stop  offset="0.3407" style="stop-color:#535355"/>
				<stop  offset="0.4459" style="stop-color:#58595B"/>
				<stop  offset="0.6559" style="stop-color:#4D4D4F"/>
				<stop  offset="0.83" style="stop-color:#414042"/>
			</linearGradient>
			<path class="st19" d="M47.6,65.6c-0.8-1.7-1.7-3.4-2.5-5.1c-1.4-2.8-3-6.2-4.1-8.5v13.2c0,0.6-0.4,1-1,1c-0.6,0-1-0.4-1-1V47.8
				c0-0.5,0.3-0.8,0.8-0.9c0.4-0.1,0.9,0.1,1.1,0.5c0.8,1.7,1.6,3.4,2.4,5.1c1.4,2.8,3,6.2,4.1,8.5V47.8c0-0.6,0.4-1,1-1
				c0.6,0,1,0.4,1,1v17.4c0,0.4-0.3,0.8-0.8,0.9C48.3,66.3,47.8,66,47.6,65.6z"/>
			<linearGradient id="SVGID_8_" gradientUnits="userSpaceOnUse" x1="39.1398" y1="56.5171" x2="117.0958" y2="56.5171">
				<stop  offset="0" style="stop-color:#231F20"/>
				<stop  offset="4.726690e-02" style="stop-color:#2C292A"/>
				<stop  offset="0.2028" style="stop-color:#444345"/>
				<stop  offset="0.3407" style="stop-color:#535355"/>
				<stop  offset="0.4459" style="stop-color:#58595B"/>
				<stop  offset="0.6559" style="stop-color:#4D4D4F"/>
				<stop  offset="0.83" style="stop-color:#414042"/>
			</linearGradient>
			<path class="st20" d="M52.5,48.2c-0.2-0.4,0-1,0.5-1.3c0.4-0.2,1,0,1.3,0.5l3.3,6.7l3.3-6.7c0.2-0.5,0.8-0.7,1.3-0.5
				c0.5,0.2,0.7,0.8,0.5,1.3l-4.1,8.2v8.8c0,0.6-0.4,1-1,1s-1-0.4-1-1v-8.8L52.5,48.2z"/>
			<linearGradient id="SVGID_9_" gradientUnits="userSpaceOnUse" x1="39.1398" y1="56.5171" x2="117.0958" y2="56.5171">
				<stop  offset="0" style="stop-color:#231F20"/>
				<stop  offset="4.726690e-02" style="stop-color:#2C292A"/>
				<stop  offset="0.2028" style="stop-color:#444345"/>
				<stop  offset="0.3407" style="stop-color:#535355"/>
				<stop  offset="0.4459" style="stop-color:#58595B"/>
				<stop  offset="0.6559" style="stop-color:#4D4D4F"/>
				<stop  offset="0.83" style="stop-color:#414042"/>
			</linearGradient>
			<path class="st21" d="M74.1,47.9c0,0.6-0.4,1-1,1h-2.9v16.3c0,0.6-0.4,1-1,1c-0.5,0-1-0.4-1-1V48.9h-2.9c-0.5,0-1-0.4-1-1
				c0-0.6,0.5-1,1-1h7.8C73.7,47,74.1,47.4,74.1,47.9z"/>
			<linearGradient id="SVGID_10_" gradientUnits="userSpaceOnUse" x1="39.1398" y1="56.5171" x2="117.0958" y2="56.5171">
				<stop  offset="0" style="stop-color:#231F20"/>
				<stop  offset="4.726690e-02" style="stop-color:#2C292A"/>
				<stop  offset="0.2028" style="stop-color:#444345"/>
				<stop  offset="0.3407" style="stop-color:#535355"/>
				<stop  offset="0.4459" style="stop-color:#58595B"/>
				<stop  offset="0.6559" style="stop-color:#4D4D4F"/>
				<stop  offset="0.83" style="stop-color:#414042"/>
			</linearGradient>
			<path class="st22" d="M82.8,65.2V47.8c0-0.6,0.4-1,1-1c0.6,0,1,0.4,1,1v17.4c0,0.6-0.4,1-1,1C83.2,66.2,82.8,65.8,82.8,65.2z"/>
			<linearGradient id="SVGID_11_" gradientUnits="userSpaceOnUse" x1="39.1398" y1="56.5171" x2="117.0958" y2="56.5171">
				<stop  offset="0" style="stop-color:#231F20"/>
				<stop  offset="4.726690e-02" style="stop-color:#2C292A"/>
				<stop  offset="0.2028" style="stop-color:#444345"/>
				<stop  offset="0.3407" style="stop-color:#535355"/>
				<stop  offset="0.4459" style="stop-color:#58595B"/>
				<stop  offset="0.6559" style="stop-color:#4D4D4F"/>
				<stop  offset="0.83" style="stop-color:#414042"/>
			</linearGradient>
			<path class="st23" d="M103.6,51.5v10c0,2.5-2,4.6-4.6,4.6h-3.6c-0.6,0-1-0.4-1-1V47.9c0-0.6,0.4-1,1-1h3.6
				C101.6,47,103.6,49,103.6,51.5z M99.1,48.9h-2.6v15.2h2.6c1.5,0,2.6-1.2,2.6-2.6v-10C101.7,50.1,100.5,48.9,99.1,48.9z"/>
			<linearGradient id="SVGID_12_" gradientUnits="userSpaceOnUse" x1="39.1398" y1="56.5171" x2="117.0958" y2="56.5171">
				<stop  offset="0" style="stop-color:#231F20"/>
				<stop  offset="4.726690e-02" style="stop-color:#2C292A"/>
				<stop  offset="0.2028" style="stop-color:#444345"/>
				<stop  offset="0.3407" style="stop-color:#535355"/>
				<stop  offset="0.4459" style="stop-color:#58595B"/>
				<stop  offset="0.6559" style="stop-color:#4D4D4F"/>
				<stop  offset="0.83" style="stop-color:#414042"/>
			</linearGradient>
			<path class="st24" d="M116.5,66.1c-0.5,0.2-1.1,0-1.3-0.4l-4.3-8.9l-1.7,2.3v6.1c0,0.6-0.4,1-1,1c-0.5,0-1-0.4-1-1V47.8
				c0-0.6,0.4-1,1-1c0.6,0,1,0.4,1,1v7.9l6.1-8.5c0.3-0.5,0.9-0.5,1.4-0.2c0.4,0.3,0.5,0.9,0.2,1.3l-4.6,6.5l4.7,9.9
				C117.2,65.3,117,65.9,116.5,66.1z"/>
		</g>
	</g>
</g>
<g id="Layer_2_copy">
	<g>
		<g>
			<path d="M40.8,103.4l-1.7,0.7L34,91.7l9.1,5.1l-2.9-7.2l1.7-0.7l5.1,12.4l-9.1-5.2L40.8,103.4z"/>
			<path d="M48.8,86.7l2.6,9.3c0.1,0.3,0.3,0.6,0.5,0.8c0.2,0.2,0.5,0.3,0.8,0.4c0.3,0,0.6,0,0.8,0c0.3-0.1,0.5-0.2,0.7-0.4
				c0.2-0.2,0.4-0.4,0.5-0.7c0.1-0.3,0.1-0.6,0-0.9l-2.6-9.3l1.9-0.5l2.6,9.3c0.2,0.8,0.2,1.4,0,2s-0.5,1.1-1,1.5
				c-0.5,0.4-1,0.7-1.6,0.9c-0.6,0.2-1.2,0.2-1.8,0.1c-0.6-0.1-1.1-0.4-1.6-0.8c-0.5-0.4-0.8-1-1-1.7l-2.6-9.3L48.8,86.7z"/>
			<path d="M64.9,90.4l3.6-8l1.9,13.2l-1.8,0.3l-1-7.2l-2.2,4.8l-3.5-4.1l1,7.3l-1.8,0.3l-1.9-13.2L64.9,90.4z"/>
			<path d="M78.8,89.4l4.8-7.4l-0.1,13.4l-1.8,0l0.1-7.3l-2.9,4.5L76,87.9l-0.1,7.4l-1.8,0l0.1-13.4L78.8,89.4z"/>
			<path d="M89,82.9l5.6,0.8l-0.2,1.7l-3.6-0.5L90,90.1l3.6,0.5l-0.2,1.7l-3.6-0.5l-0.3,2.5l3.8,0.5L93,96.6l-5.8-0.8L89,82.9z"/>
			<path d="M100.8,98.4l-0.8-3c-0.1,0-0.2,0-0.4,0c-0.1,0-0.3,0-0.4,0c-0.1,0-0.3,0-0.4,0l-0.6,2.4l-1.9-0.5l3.2-12.6l1.9,0.5
				c0.4,0.1,0.9,0.3,1.4,0.6c0.5,0.3,1,0.7,1.4,1.2c0.4,0.5,0.7,1.1,0.9,1.8c0.2,0.7,0.1,1.6-0.1,2.5c-0.2,0.8-0.5,1.4-0.8,1.9
				c-0.3,0.5-0.7,0.9-1,1.1c-0.4,0.3-0.8,0.6-1.3,0.7l1.4,4L100.8,98.4z M102.9,90.9c0.1-0.5,0.2-0.9,0.2-1.4c0-0.5-0.1-0.9-0.3-1.2
				c-0.2-0.4-0.4-0.7-0.7-1c-0.3-0.3-0.6-0.5-1.1-0.6l-1.7,6.8c0.4,0.1,0.8,0.1,1.2,0c0.4-0.1,0.7-0.2,1-0.5
				c0.3-0.2,0.6-0.5,0.8-0.9C102.6,91.9,102.8,91.4,102.9,90.9z"/>
			<path d="M119.2,92.9l0.7-1.5l3.7,1.7l-5.5,11.8l-1.8-0.8l4.8-10.3L119.2,92.9z"/>
		</g>
	</g>
	<g>
		<g>
			<path class="st25" d="M40.8,103.4l-1.7,0.7L34,91.7l9.1,5.1l-2.9-7.2l1.7-0.7l5.1,12.4l-9.1-5.2L40.8,103.4z"/>
			<path class="st25" d="M48.8,86.7l2.6,9.3c0.1,0.3,0.3,0.6,0.5,0.8c0.2,0.2,0.5,0.3,0.8,0.4c0.3,0,0.6,0,0.8,0
				c0.3-0.1,0.5-0.2,0.7-0.4c0.2-0.2,0.4-0.4,0.5-0.7c0.1-0.3,0.1-0.6,0-0.9l-2.6-9.3l1.9-0.5l2.6,9.3c0.2,0.8,0.2,1.4,0,2
				s-0.5,1.1-1,1.5c-0.5,0.4-1,0.7-1.6,0.9c-0.6,0.2-1.2,0.2-1.8,0.1c-0.6-0.1-1.1-0.4-1.6-0.8c-0.5-0.4-0.8-1-1-1.7l-2.6-9.3
				L48.8,86.7z"/>
			<path class="st25" d="M64.9,90.4l3.6-8l1.9,13.2l-1.8,0.3l-1-7.2l-2.2,4.8l-3.5-4.1l1,7.3l-1.8,0.3l-1.9-13.2L64.9,90.4z"/>
			<path class="st25" d="M78.8,89.4l4.8-7.4l-0.1,13.4l-1.8,0l0.1-7.3l-2.9,4.5L76,87.9l-0.1,7.4l-1.8,0l0.1-13.4L78.8,89.4z"/>
			<path class="st25" d="M89,82.9l5.6,0.8l-0.2,1.7l-3.6-0.5L90,90.1l3.6,0.5l-0.2,1.7l-3.6-0.5l-0.3,2.5l3.8,0.5L93,96.6l-5.8-0.8
				L89,82.9z"/>
			<path class="st25" d="M100.8,98.4l-0.8-3c-0.1,0-0.2,0-0.4,0c-0.1,0-0.3,0-0.4,0c-0.1,0-0.3,0-0.4,0l-0.6,2.4l-1.9-0.5l3.2-12.6
				l1.9,0.5c0.4,0.1,0.9,0.3,1.4,0.6c0.5,0.3,1,0.7,1.4,1.2c0.4,0.5,0.7,1.1,0.9,1.8c0.2,0.7,0.1,1.6-0.1,2.5
				c-0.2,0.8-0.5,1.4-0.8,1.9c-0.3,0.5-0.7,0.9-1,1.1c-0.4,0.3-0.8,0.6-1.3,0.7l1.4,4L100.8,98.4z M102.9,90.9
				c0.1-0.5,0.2-0.9,0.2-1.4c0-0.5-0.1-0.9-0.3-1.2c-0.2-0.4-0.4-0.7-0.7-1c-0.3-0.3-0.6-0.5-1.1-0.6l-1.7,6.8
				c0.4,0.1,0.8,0.1,1.2,0c0.4-0.1,0.7-0.2,1-0.5c0.3-0.2,0.6-0.5,0.8-0.9C102.6,91.9,102.8,91.4,102.9,90.9z"/>
			<path class="st25" d="M119.2,92.9l0.7-1.5l3.7,1.7l-5.5,11.8l-1.8-0.8l4.8-10.3L119.2,92.9z"/>
		</g>
	</g>
	<g>
		<g>
			<linearGradient id="SVGID_13_" gradientUnits="userSpaceOnUse" x1="34.0041" y1="93.3982" x2="123.567" y2="93.3982">
				<stop  offset="0" style="stop-color:#231F20"/>
				<stop  offset="4.726690e-02" style="stop-color:#2C292A"/>
				<stop  offset="0.2028" style="stop-color:#444345"/>
				<stop  offset="0.3407" style="stop-color:#535355"/>
				<stop  offset="0.4459" style="stop-color:#58595B"/>
				<stop  offset="0.6559" style="stop-color:#4D4D4F"/>
				<stop  offset="0.83" style="stop-color:#414042"/>
			</linearGradient>
			<path class="st26" d="M40.8,103.4l-1.7,0.7L34,91.7l9.1,5.1l-2.9-7.2l1.7-0.7l5.1,12.4l-9.1-5.2L40.8,103.4z"/>
			<linearGradient id="SVGID_14_" gradientUnits="userSpaceOnUse" x1="34.0041" y1="93.3982" x2="123.567" y2="93.3982">
				<stop  offset="0" style="stop-color:#231F20"/>
				<stop  offset="4.726690e-02" style="stop-color:#2C292A"/>
				<stop  offset="0.2028" style="stop-color:#444345"/>
				<stop  offset="0.3407" style="stop-color:#535355"/>
				<stop  offset="0.4459" style="stop-color:#58595B"/>
				<stop  offset="0.6559" style="stop-color:#4D4D4F"/>
				<stop  offset="0.83" style="stop-color:#414042"/>
			</linearGradient>
			<path class="st27" d="M48.8,86.7l2.6,9.3c0.1,0.3,0.3,0.6,0.5,0.8c0.2,0.2,0.5,0.3,0.8,0.4c0.3,0,0.6,0,0.8,0
				c0.3-0.1,0.5-0.2,0.7-0.4c0.2-0.2,0.4-0.4,0.5-0.7c0.1-0.3,0.1-0.6,0-0.9l-2.6-9.3l1.9-0.5l2.6,9.3c0.2,0.8,0.2,1.4,0,2
				s-0.5,1.1-1,1.5c-0.5,0.4-1,0.7-1.6,0.9c-0.6,0.2-1.2,0.2-1.8,0.1c-0.6-0.1-1.1-0.4-1.6-0.8c-0.5-0.4-0.8-1-1-1.7l-2.6-9.3
				L48.8,86.7z"/>
			<linearGradient id="SVGID_15_" gradientUnits="userSpaceOnUse" x1="34.0041" y1="93.3982" x2="123.567" y2="93.3982">
				<stop  offset="0" style="stop-color:#231F20"/>
				<stop  offset="4.726690e-02" style="stop-color:#2C292A"/>
				<stop  offset="0.2028" style="stop-color:#444345"/>
				<stop  offset="0.3407" style="stop-color:#535355"/>
				<stop  offset="0.4459" style="stop-color:#58595B"/>
				<stop  offset="0.6559" style="stop-color:#4D4D4F"/>
				<stop  offset="0.83" style="stop-color:#414042"/>
			</linearGradient>
			<path class="st28" d="M64.9,90.4l3.6-8l1.9,13.2l-1.8,0.3l-1-7.2l-2.2,4.8l-3.5-4.1l1,7.3l-1.8,0.3l-1.9-13.2L64.9,90.4z"/>
			<linearGradient id="SVGID_16_" gradientUnits="userSpaceOnUse" x1="34.0041" y1="93.3982" x2="123.567" y2="93.3982">
				<stop  offset="0" style="stop-color:#231F20"/>
				<stop  offset="4.726690e-02" style="stop-color:#2C292A"/>
				<stop  offset="0.2028" style="stop-color:#444345"/>
				<stop  offset="0.3407" style="stop-color:#535355"/>
				<stop  offset="0.4459" style="stop-color:#58595B"/>
				<stop  offset="0.6559" style="stop-color:#4D4D4F"/>
				<stop  offset="0.83" style="stop-color:#414042"/>
			</linearGradient>
			<path class="st29" d="M78.8,89.4l4.8-7.4l-0.1,13.4l-1.8,0l0.1-7.3l-2.9,4.5L76,87.9l-0.1,7.4l-1.8,0l0.1-13.4L78.8,89.4z"/>
			<linearGradient id="SVGID_17_" gradientUnits="userSpaceOnUse" x1="34.0041" y1="93.3982" x2="123.567" y2="93.3982">
				<stop  offset="0" style="stop-color:#231F20"/>
				<stop  offset="4.726690e-02" style="stop-color:#2C292A"/>
				<stop  offset="0.2028" style="stop-color:#444345"/>
				<stop  offset="0.3407" style="stop-color:#535355"/>
				<stop  offset="0.4459" style="stop-color:#58595B"/>
				<stop  offset="0.6559" style="stop-color:#4D4D4F"/>
				<stop  offset="0.83" style="stop-color:#414042"/>
			</linearGradient>
			<path class="st30" d="M89,82.9l5.6,0.8l-0.2,1.7l-3.6-0.5L90,90.1l3.6,0.5l-0.2,1.7l-3.6-0.5l-0.3,2.5l3.8,0.5L93,96.6l-5.8-0.8
				L89,82.9z"/>
			<linearGradient id="SVGID_18_" gradientUnits="userSpaceOnUse" x1="34.0041" y1="93.3982" x2="123.567" y2="93.3982">
				<stop  offset="0" style="stop-color:#231F20"/>
				<stop  offset="4.726690e-02" style="stop-color:#2C292A"/>
				<stop  offset="0.2028" style="stop-color:#444345"/>
				<stop  offset="0.3407" style="stop-color:#535355"/>
				<stop  offset="0.4459" style="stop-color:#58595B"/>
				<stop  offset="0.6559" style="stop-color:#4D4D4F"/>
				<stop  offset="0.83" style="stop-color:#414042"/>
			</linearGradient>
			<path class="st31" d="M100.8,98.4l-0.8-3c-0.1,0-0.2,0-0.4,0c-0.1,0-0.3,0-0.4,0c-0.1,0-0.3,0-0.4,0l-0.6,2.4l-1.9-0.5l3.2-12.6
				l1.9,0.5c0.4,0.1,0.9,0.3,1.4,0.6c0.5,0.3,1,0.7,1.4,1.2c0.4,0.5,0.7,1.1,0.9,1.8c0.2,0.7,0.1,1.6-0.1,2.5
				c-0.2,0.8-0.5,1.4-0.8,1.9c-0.3,0.5-0.7,0.9-1,1.1c-0.4,0.3-0.8,0.6-1.3,0.7l1.4,4L100.8,98.4z M102.9,90.9
				c0.1-0.5,0.2-0.9,0.2-1.4c0-0.5-0.1-0.9-0.3-1.2c-0.2-0.4-0.4-0.7-0.7-1c-0.3-0.3-0.6-0.5-1.1-0.6l-1.7,6.8
				c0.4,0.1,0.8,0.1,1.2,0c0.4-0.1,0.7-0.2,1-0.5c0.3-0.2,0.6-0.5,0.8-0.9C102.6,91.9,102.8,91.4,102.9,90.9z"/>
			<linearGradient id="SVGID_19_" gradientUnits="userSpaceOnUse" x1="34.0041" y1="93.3982" x2="123.567" y2="93.3982">
				<stop  offset="0" style="stop-color:#231F20"/>
				<stop  offset="4.726690e-02" style="stop-color:#2C292A"/>
				<stop  offset="0.2028" style="stop-color:#444345"/>
				<stop  offset="0.3407" style="stop-color:#535355"/>
				<stop  offset="0.4459" style="stop-color:#58595B"/>
				<stop  offset="0.6559" style="stop-color:#4D4D4F"/>
				<stop  offset="0.83" style="stop-color:#414042"/>
			</linearGradient>
			<path class="st32" d="M119.2,92.9l0.7-1.5l3.7,1.7l-5.5,11.8l-1.8-0.8l4.8-10.3L119.2,92.9z"/>
		</g>
	</g>
</g>
</svg>
