<svg xmlns="http://www.w3.org/2000/svg" viewBox="0 0 43.34 62.94"><defs><style>.cls-1{fill:none;}.cls-2{fill:#020202;}</style></defs><title>clipboard-svg</title><g id="Layer_2" data-name="Layer 2"><g id="Layer_1-2" data-name="Layer 1"><path class="cls-1" d="M37.28,9.57h-3v2.84H10.15V9.57H6.06a3.49,3.49,0,0,0-3.4,3.56V56.72a3.49,3.49,0,0,0,3.4,3.56H37.28a3.49,3.49,0,0,0,3.4-3.56V13.13A3.49,3.49,0,0,0,37.28,9.57ZM7.3,22a1.32,1.32,0,0,1,1.82.37l1.23,1.85,3.81-4.4a1.31,1.31,0,1,1,2,1.72l-4.41,5.1a1.92,1.92,0,0,1-1.44.66h-.13a1.86,1.86,0,0,1-1.47-.84L6.94,23.86A1.32,1.32,0,0,1,7.3,22Zm0,8.18a1.31,1.31,0,0,1,1.82.37l1.23,1.85L14.16,28a1.31,1.31,0,1,1,2,1.72l-4.41,5.1a1.92,1.92,0,0,1-1.44.66h-.13a1.85,1.85,0,0,1-1.47-.85L6.94,32A1.32,1.32,0,0,1,7.3,30.22Zm0,8.18a1.31,1.31,0,0,1,1.82.37l1.23,1.85,3.81-4.4a1.31,1.31,0,1,1,2,1.72L11.73,43a1.92,1.92,0,0,1-1.44.66h-.13a1.86,1.86,0,0,1-1.47-.84L6.94,40.22A1.32,1.32,0,0,1,7.3,38.4Zm8.84,7.72-4.41,5.1a1.92,1.92,0,0,1-1.44.66h-.13A1.85,1.85,0,0,1,8.69,51L6.94,48.4A1.31,1.31,0,1,1,9.12,47l1.23,1.85,3.81-4.4a1.31,1.31,0,1,1,2,1.72Zm17.92,3.1H19.3a1.31,1.31,0,0,1,0-2.62H34.06a1.31,1.31,0,0,1,0,2.62Zm0-8.18H19.3a1.31,1.31,0,1,1,0-2.61H34.06a1.31,1.31,0,1,1,0,2.61Zm0-8.18H19.3a1.31,1.31,0,1,1,0-2.61H34.06a1.31,1.31,0,1,1,0,2.61Zm0-8.18H19.3a1.31,1.31,0,1,1,0-2.61H34.06a1.31,1.31,0,1,1,0,2.61Z"/><path class="cls-1" d="M31.41,6.62A.63.63,0,0,0,30.78,6H24.56V4.55c0-.79-1.14-1.67-2.76-1.67S19,3.76,19,4.55V6H13.66a.63.63,0,0,0-.63.63V9.54H31.41Z"/><path class="cls-2" d="M37.28,6.91h-3V6.62a3.51,3.51,0,0,0-3.51-3.51H27.16A5.61,5.61,0,0,0,21.8,0a5.59,5.59,0,0,0-5.36,3.11H13.66a3.51,3.51,0,0,0-3.51,3.51v.29H6.06A6.15,6.15,0,0,0,0,13.13V56.72a6.15,6.15,0,0,0,6.06,6.22H37.28a6.15,6.15,0,0,0,6.06-6.22V13.13A6.15,6.15,0,0,0,37.28,6.91ZM13,6.62A.63.63,0,0,1,13.66,6H19V4.55c0-.79,1.13-1.67,2.76-1.67s2.76.88,2.76,1.67V6h6.22a.63.63,0,0,1,.63.63V9.54H13Zm27.65,50.1a3.49,3.49,0,0,1-3.4,3.56H6.06a3.49,3.49,0,0,1-3.4-3.56V13.13a3.49,3.49,0,0,1,3.4-3.56h4.09v2.84H34.29V9.57h3a3.49,3.49,0,0,1,3.4,3.56Z"/><path class="cls-2" d="M34.06,22.07H19.3a1.31,1.31,0,1,0,0,2.61H34.06a1.31,1.31,0,1,0,0-2.61Z"/><path class="cls-2" d="M8.69,26.49a1.86,1.86,0,0,0,1.47.84h.13a1.92,1.92,0,0,0,1.44-.66l4.41-5.1a1.31,1.31,0,1,0-2-1.72l-3.81,4.4L9.12,22.41a1.31,1.31,0,1,0-2.18,1.45Z"/><path class="cls-2" d="M8.69,34.66a1.85,1.85,0,0,0,1.47.85h.13a1.92,1.92,0,0,0,1.44-.66l4.41-5.1a1.31,1.31,0,1,0-2-1.72l-3.81,4.4L9.12,30.59A1.31,1.31,0,1,0,6.94,32Z"/><path class="cls-2" d="M34.06,30.25H19.3a1.31,1.31,0,1,0,0,2.61H34.06a1.31,1.31,0,1,0,0-2.61Z"/><path class="cls-2" d="M8.69,42.85a1.86,1.86,0,0,0,1.47.84h.13A1.92,1.92,0,0,0,11.73,43l4.41-5.1a1.31,1.31,0,1,0-2-1.72l-3.81,4.4L9.12,38.77a1.31,1.31,0,1,0-2.18,1.45Z"/><path class="cls-2" d="M34.06,38.43H19.3a1.31,1.31,0,1,0,0,2.61H34.06a1.31,1.31,0,1,0,0-2.61Z"/><path class="cls-2" d="M14.16,44.4l-3.81,4.4L9.12,47A1.31,1.31,0,1,0,6.94,48.4L8.69,51a1.85,1.85,0,0,0,1.47.85h.13a1.92,1.92,0,0,0,1.44-.66l4.41-5.1a1.31,1.31,0,1,0-2-1.72Z"/><path class="cls-2" d="M34.06,46.6H19.3a1.31,1.31,0,0,0,0,2.62H34.06a1.31,1.31,0,0,0,0-2.62Z"/></g></g></svg>