<svg xmlns="http://www.w3.org/2000/svg" viewBox="0 0 55.13 31.26"><defs><style>.cls-1{fill:none;}.cls-2{fill:#020202;}</style></defs><title>delivery-menu-svg</title><g id="Layer_2" data-name="Layer 2"><g id="Layer_2-2" data-name="Layer 2"><polygon class="cls-1" points="2.54 13.16 7.67 13.24 10.65 10.35 15.21 10.35 15.21 6.55 9.59 6.38 2.54 13.16"/><circle class="cls-1" cx="9.93" cy="25.98" r="2.11"/><circle class="cls-1" cx="43.93" cy="25.98" r="2.11"/><path class="cls-2" d="M51.17,0H19.93a2.39,2.39,0,0,0-2.4,2.4V4.33h-15L0,12.88V26H4.65a5.28,5.28,0,0,0,10.56,0H38.65a5.28,5.28,0,0,0,10.56,0h5.92V4A4,4,0,0,0,51.17,0ZM9.93,28.09A2.11,2.11,0,1,1,12,26,2.11,2.11,0,0,1,9.93,28.09ZM11,10.41l-3,0-.38,2.54-5.36-.08L4.09,6.38h7.19ZM43.93,28.09A2.11,2.11,0,1,1,46,26,2.1,2.1,0,0,1,43.93,28.09Z"/></g></g></svg>