<svg xmlns="http://www.w3.org/2000/svg" viewBox="0 0 63.23 63.23"><defs><style>.cls-1{fill:#020202;}</style></defs><title>info-svg</title><g id="Layer_2" data-name="Layer 2"><g id="Layer_1-2" data-name="Layer 1"><path class="cls-1" d="M31.61,0A31.62,31.62,0,1,0,63.23,31.61,31.61,31.61,0,0,0,31.61,0ZM34.8,12.34c2.29,0,4.15,1.31,4.15,3.7a5.6,5.6,0,0,1-5.84,5.46c-2.29,0-4.09-1.26-4.09-3.66A5.59,5.59,0,0,1,34.8,12.34Zm4.31,33.59c-2.62,2.78-6.71,5-10.58,5-2.4,0-3.76-1.15-3.76-3.6A9,9,0,0,1,25,45.54l2.45-12.43a10,10,0,0,0,.16-1.8c0-2.23-1.19-2.23-3.05-2.23-.38,0-.76-.06-.76-.55a.7.7,0,0,1,.49-.6c2-.82,9.76-2.67,11.78-2.67a.81.81,0,0,1,.92.87,1.13,1.13,0,0,1,0,.38L33.49,43.75a7.89,7.89,0,0,0-.11,1.09c0,1,.44,1.74,1.53,1.74,1.86,0,3.38-2,3.93-2a.57.57,0,0,1,.6.6A1.13,1.13,0,0,1,39.11,45.93Z"/></g></g></svg>