<svg xmlns="http://www.w3.org/2000/svg" viewBox="0 0 44.96 44.95"><defs><style>.cls-1{fill:#020202;}</style></defs><title>installation-svg</title><g id="Layer_2" data-name="Layer 2"><g id="Layer_1-2" data-name="Layer 1"><path class="cls-1" d="M1.23,37.77a4.21,4.21,0,0,0,6,5.95L21,29.89l-6-5.95Z"/><polygon class="cls-1" points="35.78 12.14 41.8 9.03 44.95 2.94 42.02 0 35.92 3.15 32.81 9.17 25.48 16.5 28.45 19.48 35.78 12.14"/><path class="cls-1" d="M37.1,28.12l-.57-.05a8.31,8.31,0,0,0-2.91.55L16.34,11.33a8.27,8.27,0,0,0,.55-2.91l-.06-.57a8.34,8.34,0,0,0-12-7l5.59,5.6a2.71,2.71,0,0,1,.64,1,2.81,2.81,0,0,1-.64,3,2.77,2.77,0,0,1-2,.83,2.93,2.93,0,0,1-1-.19,2.83,2.83,0,0,1-1-.64L.89,4.81a8.34,8.34,0,0,0,7,12l.57.06a8.49,8.49,0,0,0,2.91-.54L28.66,33.58a8.49,8.49,0,0,0-.54,2.91l.06.57a8.38,8.38,0,0,0,8.36,7.85,8.29,8.29,0,0,0,3.61-.84l-5.6-5.6a2.87,2.87,0,0,1-.63-1,2.79,2.79,0,0,1,2.62-3.79,2.74,2.74,0,0,1,1,.19,2.82,2.82,0,0,1,1,.63l5.6,5.6a8.35,8.35,0,0,0-7-12Z"/></g></g></svg>