<svg xmlns="http://www.w3.org/2000/svg" viewBox="0 0 45.18 54.44"><defs><style>.cls-1{fill:#010101;}</style></defs><title>shield-svg</title><g id="Layer_2" data-name="Layer 2"><g id="Layer_1-2" data-name="Layer 1"><path class="cls-1" d="M45.16,9.12a1.46,1.46,0,0,0-1.25-1.44A47.6,47.6,0,0,1,34,5.22a72.49,72.49,0,0,1-10.67-5,1.34,1.34,0,0,0-1.44,0,71.48,71.48,0,0,1-10.64,5,47.8,47.8,0,0,1-9.9,2.46A1.59,1.59,0,0,0,0,9.12Q-.46,29.64,9,42.71A40,40,0,0,0,21.87,54.23a1.42,1.42,0,0,0,1.5,0A41.12,41.12,0,0,0,36.2,42.71Q45.64,29.66,45.16,9.12ZM33.8,41A38.22,38.22,0,0,1,22.59,51.3,37.81,37.81,0,0,1,11.39,41Q2.81,29.08,3,10.43a50.72,50.72,0,0,0,9.4-2.51A78.44,78.44,0,0,0,22.59,3.2,78.89,78.89,0,0,0,32.78,7.92a50.91,50.91,0,0,0,9.42,2.51Q42.37,29.2,33.8,41Z"/></g></g></svg>